<svg width="230" height="53" viewBox="0 0 230 53" fill="none" xmlns="http://www.w3.org/2000/svg">
<ellipse opacity="0.9" cx="18.3615" cy="26" rx="18.3615" ry="18.9538" fill="#00A286"/>
<ellipse opacity="0.9" cx="39.6847" cy="26" rx="18.3615" ry="18.9538" fill="#D8AC00"/>
<ellipse opacity="0.9" cx="58.6385" cy="26" rx="18.3615" ry="18.9538" fill="#DC4433"/>
<path d="M93.225 26.75C93.225 34.065 98.58 39.21 105.615 39.21C111.04 39.21 115.45 36.34 117.095 31.3H111.46C110.305 33.68 108.205 34.835 105.58 34.835C101.31 34.835 98.265 31.685 98.265 26.75C98.265 21.78 101.31 18.665 105.58 18.665C108.205 18.665 110.305 19.82 111.46 22.165H117.095C115.45 17.16 111.04 14.255 105.615 14.255C98.58 14.255 93.225 19.435 93.225 26.75ZM140.005 29.305C140.005 23.18 135.63 19.295 130.03 19.295C124.43 19.295 120.055 23.18 120.055 29.305C120.055 35.395 124.29 39.315 129.89 39.315C135.525 39.315 140.005 35.395 140.005 29.305ZM125.025 29.305C125.025 25.42 127.37 23.565 129.96 23.565C132.55 23.565 134.965 25.42 134.965 29.305C134.965 33.155 132.48 35.045 129.89 35.045C127.265 35.045 125.025 33.155 125.025 29.305ZM158.65 33.47C158.51 26.365 147.765 28.57 147.765 25.035C147.765 23.915 148.71 23.18 150.53 23.18C152.455 23.18 153.645 24.195 153.785 25.7H158.475C158.195 21.85 155.36 19.295 150.67 19.295C145.875 19.295 143.005 21.885 143.005 25.105C143.005 32.21 153.96 30.005 153.96 33.47C153.96 34.59 152.91 35.465 150.985 35.465C149.025 35.465 147.66 34.345 147.485 32.875H142.55C142.76 36.48 146.155 39.315 151.02 39.315C155.745 39.315 158.65 36.795 158.65 33.47ZM162.672 39H167.572V28.29C167.572 25.175 169.287 23.495 171.947 23.495C174.537 23.495 176.252 25.175 176.252 28.29V39H181.152V27.625C181.152 22.27 177.967 19.33 173.592 19.33C171.002 19.33 168.832 20.38 167.572 22.025V13.1H162.672V39ZM204.536 29.305C204.536 23.18 200.161 19.295 194.561 19.295C188.961 19.295 184.586 23.18 184.586 29.305C184.586 35.395 188.821 39.315 194.421 39.315C200.056 39.315 204.536 35.395 204.536 29.305ZM189.556 29.305C189.556 25.42 191.901 23.565 194.491 23.565C197.081 23.565 199.496 25.42 199.496 29.305C199.496 33.155 197.011 35.045 194.421 35.045C191.796 35.045 189.556 33.155 189.556 29.305ZM213.031 22.41V19.61H208.131V48.24H213.031V36.235C214.221 37.81 216.391 39.315 219.436 39.315C224.406 39.315 228.291 35.29 228.291 29.235C228.291 23.18 224.406 19.295 219.436 19.295C216.426 19.295 214.186 20.765 213.031 22.41ZM223.286 29.235C223.286 32.91 220.801 35.01 218.141 35.01C215.516 35.01 213.031 32.98 213.031 29.305C213.031 25.63 215.516 23.6 218.141 23.6C220.801 23.6 223.286 25.56 223.286 29.235Z" fill="white"/>
</svg>
